<svg width="169" height="158" viewBox="0 0 169 158" fill="none" xmlns="http://www.w3.org/2000/svg">
    <path d="M124.583 119.802L39.685 141.646C33.6888 143.182 27.58 139.578 26.0296 133.59L0.354195 33.9665C-1.18268 27.9753 2.42418 21.8716 8.41691 20.3224L87.4007 0L107.617 9.04262L132.646 106.158C134.183 112.149 130.576 118.253 124.583 119.802Z"
          fill="#F2F2F2"/>
    <path d="M9.01548 23.9863C4.73253 25.0865 2.15474 29.4212 3.25314 33.6761L29.0211 133.027C30.1292 137.28 34.495 139.839 38.7804 138.749L123.985 116.964C128.267 115.864 130.845 111.529 129.747 107.274L105.017 11.9252L87.1865 4L9.01548 23.9863Z"
          fill="white"/>
    <path d="M107.828 9.44296L94.9267 12.8793C92.9654 13.4016 90.9661 12.1806 90.461 10.152L88.0072 0.296174C87.9853 0.208126 88.014 0.114869 88.0811 0.0561255C88.1482 -0.00261759 88.2419 -0.0164954 88.3222 0.0204035L107.864 8.99674C107.953 9.03769 108.007 9.1325 107.999 9.23303C107.991 9.33357 107.922 9.4178 107.828 9.44296V9.44296Z"
          fill="#F2F2F2"/>
    <path d="M100.578 94.7594L61.3667 104.94C60.7113 105.11 60.0157 104.914 59.5419 104.427C59.068 103.94 58.8879 103.235 59.0695 102.578C59.251 101.921 59.7666 101.411 60.4219 101.241L99.6333 91.0604C100.289 90.8902 100.984 91.0855 101.458 91.5727C101.932 92.0598 102.112 92.7649 101.931 93.4222C101.749 94.0795 101.233 94.5892 100.578 94.7594Z"
          fill="#CCCCCC"/>
    <path d="M109.595 98.7676L63.3406 110.939C62.3388 111.203 61.3176 110.587 61.0596 109.563C60.8017 108.539 61.4046 107.496 62.4064 107.232L108.661 95.0605C109.662 94.798 110.683 95.4141 110.94 96.4372C111.198 97.4602 110.596 98.5033 109.595 98.7676H109.595Z"
          fill="#CCCCCC"/>
    <circle cx="46.5" cy="110.5" r="6.5" fill="#E6E6E6"/>
    <path d="M96.6426 77.5145L45.0609 90.8165C41.957 91.6132 38.7951 89.7425 37.9928 86.6348L27.1832 44.5662C26.3879 41.4567 28.2553 38.2891 31.3573 37.4854L82.9391 24.1835C86.043 23.3868 89.2049 25.2575 90.0072 28.3652L100.817 70.4338C101.612 73.5432 99.7447 76.7108 96.6426 77.5145Z"
          fill="white"/>
    <path fill-rule="evenodd" clip-rule="evenodd"
          d="M45.0609 90.8165L96.6426 77.5145C99.7447 76.7108 101.612 73.5432 100.817 70.4338L90.0072 28.3652C89.2049 25.2575 86.043 23.3868 82.9391 24.1835L31.3573 37.4854C28.2553 38.2891 26.3879 41.4567 27.1832 44.5662L37.9928 86.6348C38.7951 89.7425 41.957 91.6132 45.0609 90.8165ZM27.8445 44.3957C27.1428 41.652 28.7905 38.8571 31.5276 38.1479L83.1093 24.846C85.8481 24.1431 88.638 25.7937 89.3458 28.5357L100.155 70.6043C100.857 73.348 99.2096 76.1429 96.4724 76.8521L44.8907 90.154C42.1519 90.8569 39.362 89.2063 38.6542 86.4643L27.8445 44.3957Z"
          fill="#E6E6E6"/>
    <path d="M80.3229 37.9369L54.1764 44.9638C53.7021 45.102 53.2062 44.8331 53.0418 44.3485C52.9673 44.1019 52.9931 43.8342 53.1133 43.6081C53.2335 43.382 53.4374 43.2174 53.6772 43.153L80.2928 36C81.3679 36.5688 81.085 37.7321 80.3226 37.937L80.3229 37.9369Z"
          fill="#F2F2F2"/>
    <path d="M81.3229 42.9369L55.1764 49.9638C54.7021 50.102 54.2062 49.8331 54.0418 49.3485C53.9673 49.1019 53.9931 48.8342 54.1133 48.6081C54.2335 48.382 54.4374 48.2174 54.6772 48.153L81.2928 41C82.3679 41.5688 82.085 42.7321 81.3226 42.937L81.3229 42.9369Z"
          fill="#F2F2F2"/>
    <path d="M50.2648 53.9911L42.5631 55.9691C42.0394 56.1031 41.5058 55.7887 41.3705 55.2664L39.0309 46.1987C38.8967 45.6761 39.2118 45.1438 39.7352 45.0088L47.4369 43.0308C47.9606 42.897 48.494 43.2113 48.6295 43.7335L50.9691 52.8013C51.1033 53.3238 50.7882 53.8561 50.2648 53.9911V53.9911Z"
          fill="#E6E6E6"/>
    <path d="M83.3349 52.8306L44.155 62.9658C43.6893 63.0964 43.2025 62.8423 43.0411 62.3843C42.9679 62.1513 42.9933 61.8982 43.1112 61.6846C43.2292 61.4709 43.4294 61.3154 43.6649 61.2544L83.3056 51C84.3612 51.5375 84.0835 52.6369 83.3349 52.8306L83.3349 52.8306Z"
          fill="#F2F2F2"/>
    <path d="M84.3349 56.8305L45.155 66.9658C44.6893 67.0964 44.2025 66.8423 44.0411 66.3843C43.9679 66.1513 43.9933 65.8982 44.1112 65.6846C44.2292 65.4709 44.4294 65.3154 44.6649 65.2544L84.3056 55C85.3612 55.5375 85.0835 56.6369 84.3349 56.8306L84.3349 56.8305Z"
          fill="#F2F2F2"/>
    <path d="M86.3349 61.8306L47.155 71.9658C46.6893 72.0964 46.2025 71.8423 46.0411 71.3843C45.9679 71.1513 45.9933 70.8982 46.1112 70.6846C46.2292 70.4709 46.4294 70.3154 46.6649 70.2544L86.3056 60C87.3612 60.5375 87.0835 61.6369 86.3349 61.8306H86.3349Z"
          fill="#F2F2F2"/>
    <path d="M87.3349 65.8305L48.155 75.9658C47.6893 76.0964 47.2025 75.8423 47.0411 75.3843C46.9679 75.1513 46.9933 74.8982 47.1112 74.6846C47.2292 74.4709 47.4294 74.3154 47.6649 74.2544L87.3056 64C88.3612 64.5375 88.0835 65.6369 87.3349 65.8306L87.3349 65.8305Z"
          fill="#F2F2F2"/>
    <path d="M88.3349 70.8306L49.155 80.9658C48.6893 81.0964 48.2025 80.8423 48.0411 80.3843C47.9679 80.1513 47.9933 79.8982 48.1112 79.6846C48.2292 79.4709 48.4294 79.3154 48.6649 79.2544L88.3056 69C89.3612 69.5375 89.0835 70.6369 88.3349 70.8306H88.3349Z"
          fill="#F2F2F2"/>
    <path d="M46.6732 112.977C46.5287 113.016 46.376 113.005 46.2381 112.945L46.2296 112.941L44.4227 112.124C44.1945 112.021 44.0353 111.796 44.0052 111.534C43.975 111.272 44.0784 111.013 44.2765 110.854C44.4745 110.696 44.7369 110.662 44.9648 110.765L46.1356 111.296L47.6698 107.449C47.7417 107.269 47.8778 107.127 48.0481 107.054C48.2184 106.98 48.409 106.982 48.578 107.059L48.5782 107.059L48.569 107.084L48.5786 107.059C48.9303 107.219 49.0941 107.652 48.9448 108.027L47.1398 112.55C47.0549 112.762 46.8826 112.919 46.6736 112.976L46.6732 112.977Z"
          fill="white"/>
    <path d="M157.796 158H70.2037C64.019 157.993 59.007 152.992 59 146.821V44.1789C59.007 38.0078 64.019 33.007 70.2037 33H151.694L169 46.7632V146.821C168.993 152.992 163.981 157.993 157.796 158V158Z"
          fill="#E6E6E6"/>
    <path d="M70.0131 36C65.5897 36.005 62.005 39.5793 62 43.99V147.01C62.005 151.421 65.5897 154.995 70.0131 155H157.987C162.41 154.995 165.995 151.421 166 147.01V48.1399L150.725 36H70.0131Z"
          fill="white"/>
    <path d="M140.118 66H99.8824C98.8428 66 98 65.1046 98 64C98 62.8954 98.8428 62 99.8824 62H140.118C141.157 62 142 62.8954 142 64C142 65.1046 141.157 66 140.118 66V66Z"
          fill="#EF8354"/>
    <path d="M148.143 72H100.852C99.8288 71.9985 99 71.1035 99 70C99 68.8965 99.8288 68.0015 100.852 68H148.143C148.806 67.999 149.419 68.38 149.751 68.9992C150.083 69.6184 150.083 70.3816 149.751 71.0008C149.419 71.62 148.806 72.001 148.143 72V72Z"
          fill="#EF8354"/>
    <path d="M140.118 90H99.8823C98.8427 90 98 90.8954 98 92C98 93.1046 98.8427 94 99.8823 94H140.118C141.157 94 142 93.1046 142 92C142 90.8954 141.157 90 140.118 90Z"
          fill="#CCCCCC"/>
    <path d="M148.146 96H100.854C99.8303 96 99 96.8954 99 98C99 99.1046 99.8303 100 100.854 100H148.146C149.17 100 150 99.1046 150 98C150 96.8954 149.17 96 148.146 96Z"
          fill="#CCCCCC"/>
    <path d="M140.118 122H99.8824C98.8428 122 98 121.105 98 120C98 118.895 98.8428 118 99.8824 118H140.118C141.157 118 142 118.895 142 120C142 121.105 141.157 122 140.118 122V122Z"
          fill="#CCCCCC"/>
    <path d="M148.143 129H100.852C99.8288 128.999 99 128.104 99 127C99 125.896 99.8288 125.001 100.852 125H148.143C148.806 124.999 149.419 125.38 149.751 125.999C150.083 126.618 150.083 127.382 149.751 128.001C149.419 128.62 148.806 129.001 148.143 129V129Z"
          fill="#CCCCCC"/>
    <circle cx="83.5" cy="66.5" r="6.5" fill="#EF8354"/>
    <path d="M83.3491 69C83.1935 69.0002 83.042 68.9524 82.9175 68.8637L82.9098 68.8582L81.2841 67.6763C81.0787 67.5272 80.9726 67.2852 81.0061 67.0416C81.0395 66.7981 81.2074 66.59 81.4462 66.4961C81.685 66.4021 81.9584 66.4366 82.1632 66.5865L83.2162 67.3539L85.7045 64.2687C85.821 64.1243 85.9931 64.0297 86.183 64.0059C86.3729 63.9821 86.5649 64.0309 86.7169 64.1417L86.7171 64.1418L86.7017 64.1622L86.7175 64.1418C87.0337 64.3727 87.0934 64.8033 86.8511 65.1042L83.9244 68.7314C83.7872 68.9008 83.5747 68.9998 83.3498 68.9992L83.3491 69Z"
          fill="white"/>
    <path d="M91 95.4995C91.0007 97.2231 90.3162 98.8763 89.0973 100.095C87.8784 101.314 86.2249 101.999 84.5007 102C84.4448 102.001 84.389 101.999 84.3334 101.993C80.7661 101.902 77.9396 98.9525 78.001 95.3859C78.0623 91.8193 80.9885 88.9691 84.5568 89.0003C88.1251 89.0314 91.001 91.9324 91 95.4995V95.4995Z"
          fill="#CCCCCC"/>
    <circle cx="83.5" cy="123.5" r="6.5" fill="#CCCCCC"/>
    <path d="M168.76 47H154.833C152.716 47 151 45.3266 151 43.2624V33.2336C151 33.144 151.053 33.0623 151.135 33.0233C151.218 32.9843 151.316 32.9949 151.388 33.0505L168.909 46.5833C168.989 46.645 169.02 46.7493 168.987 46.8432C168.953 46.9371 168.862 47 168.76 47Z"
          fill="#CCCCCC"/>
    <path d="M91 95.4527C91.0007 97.1887 90.2875 98.8538 89.0174 100.082C87.7473 101.31 86.0243 101.999 84.2276 102C84.1694 102.001 84.1112 101.999 84.0532 101.993C82.2774 97.7133 82.7679 92.8663 85.368 89C88.6211 89.5388 90.9993 92.2636 91 95.4527Z"
          fill="#EF8354"/>
    <path d="M99 92.0018C99.0018 90.8971 99.8348 90.002 100.863 90H110.777C111.356 91.2656 111.768 92.612 112 94H100.863C99.8355 93.9997 99.0021 93.1059 99 92.0018H99Z"
          fill="#EF8354"/>
    <path d="M112 96C112.001 97.351 111.837 98.6961 111.514 100H100.829C99.8189 100 99 99.1046 99 98C99 96.8954 99.8189 96 100.829 96H112Z"
          fill="#EF8354"/>
    <path d="M136.7 120.001C136.111 120.984 134.85 121.294 133.884 120.695L109.982 105.863C109.357 105.476 108.983 104.778 109.001 104.034C109.018 103.289 109.425 102.611 110.067 102.255C110.71 101.898 111.491 101.917 112.115 102.305L136.018 117.136C136.984 117.736 137.289 119.018 136.7 120.001Z"
          fill="#3F3D56"/>
    <path fill-rule="evenodd" clip-rule="evenodd"
          d="M95.9549 112.802C102.549 113.832 109.115 110.789 112.591 105.092C117.326 97.3104 114.867 87.1654 107.096 82.4136C101.398 78.9385 94.1671 79.2375 88.7756 83.1713C83.384 87.105 80.8932 93.8988 82.4647 100.385C84.0363 106.871 89.3606 111.771 95.9549 112.802ZM92.0579 107.064C86.2224 103.505 84.3773 95.8904 87.9367 90.0557C91.501 84.2278 99.1108 82.3845 104.948 85.9352C110.783 89.4941 112.628 97.109 109.069 102.944C105.509 108.778 97.8933 110.623 92.0579 107.064Z"
          fill="#3F3D56"/>
</svg>
